<?xml version="1.0" encoding="utf-8"?>
<!-- Generator: Adobe Illustrator 25.0.0, SVG Export Plug-In . SVG Version: 6.00 Build 0)  -->
<svg version="1.1" id="Capa_1" xmlns="http://www.w3.org/2000/svg" xmlns:xlink="http://www.w3.org/1999/xlink" x="0px" y="0px"
	 viewBox="0 0 400 81.3" style="enable-background:new 0 0 400 81.3;" xml:space="preserve">
<style type="text/css">
	.st0{fill:#E0C03C;}
	.st1{fill:#79BAAB;}
	.st2{fill:#DC4A23;}
	.st3{fill:#2A2A2A;}
</style>
<g>
	<path class="st0" d="M32.4,14.1l10.3-1.4c0,0-1.7-5.9-3.4-6.2c-1.7-0.4-6.1-2.8-6.8,1.1S32.4,14.1,32.4,14.1z"/>
	<path class="st1" d="M13.9,40.1v24.7c0,0-0.6,4.6,3,5c3.6,0.4,7.1,0.7,7.1,0.7l5.5-10.1l5.2,6.6l4.9-7.1l4.3,7.9l4.6-7.8L54,70.5
		h7.3c0,0,3-0.4,3.2-6.4c0.2-6,0-23.9,0-23.9H13.9z"/>
	<path class="st1" d="M15.8,30.8l49.4-9.5c0,0-3.2-10.6-12.1-9.3s-31.2,5.5-31.2,5.5S13.1,19.8,15.8,30.8z"/>
	<path class="st2" d="M24,70.5l5.5-10.1l5.2,6.6l4.4-5.3l4.8,6.2l4.3-6l5.9,8.7c0,0-0.2,2.8-4.6,3.8c-4.4,1-18.8,1.3-18.8,1.3
		S24.6,74.7,24,70.5z"/>
	<g>
		<path class="st3" d="M74,43.8h-7.2v-4.3c0-1.2-1-2.2-2.2-2.2h-51c-1.2,0-2.2,1-2.2,2.2v4.3H4.3c-1.2,0-2.2,1-2.2,2.2
			c0,1.2,1,2.2,2.2,2.2h7.2v17.3c0,3.7,3,6.6,6.6,6.6h4.7c0.9,3,3.7,5.2,7,5.2h18.7c3.3,0,6.1-2.2,7-5.2h4.7c3.7,0,6.6-3,6.6-6.6
			V48.2H74c1.2,0,2.2-1,2.2-2.2C76.2,44.8,75.2,43.8,74,43.8L74,43.8z M48.5,72.9H29.8c-1.7,0-3-1.4-3-3c0-0.9,1.4-3.4,3-5.9
			c1,1.5,2.1,3.2,2.7,4.6c0.7,1.8,3.3,1.8,4,0c0.6-1.5,1.7-3.2,2.6-4.6c0.9,1.4,2,3.2,2.6,4.6c0.7,1.8,3.3,1.8,4,0
			c0.6-1.5,1.7-3.2,2.7-4.6c1.6,2.4,3,5,3,5.9C51.5,71.6,50.1,72.9,48.5,72.9L48.5,72.9z M62.5,65.5c0,1.3-1,2.3-2.3,2.3h-4.8
			c-1.1-3.3-4.1-7.4-5.2-8.8c-0.9-1.1-2.6-1.1-3.5,0c-0.1,0.1-1.5,2-2.9,4.3C42.4,61,41,59.1,40.9,59c-0.9-1.1-2.6-1.1-3.5,0
			c-0.1,0.1-1.5,2-2.9,4.3c-1.4-2.3-2.8-4.1-2.9-4.3c-0.9-1.1-2.6-1.1-3.5,0c-1.1,1.4-4.1,5.5-5.2,8.8h-4.8c-1.3,0-2.3-1-2.3-2.3
			V41.7h46.7L62.5,65.5z"/>
		<path class="st3" d="M15.3,33.1l50.2-8.9c1.2-0.2,2-1.3,1.8-2.5C65.9,13.9,58.4,8.6,50.5,10l-6.3,1.1l-0.4-2.3
			c-0.6-3.7-4.1-6.1-7.8-5.5c-3.7,0.6-6.1,4.1-5.5,7.8l0.4,2.3l-6.3,1.1c-7.9,1.4-13.2,8.9-11.8,16.8C13,32.6,14.1,33.4,15.3,33.1z
			 M36.7,7.6c1.3-0.2,2.5,0.6,2.8,1.9l0.4,2.3l-4.7,0.8l-0.4-2.3C34.5,9,35.4,7.8,36.7,7.6L36.7,7.6z M25.3,18.8
			c1.4-0.3,24.4-4.3,25.9-4.6c4.8-0.9,9.4,1.9,11.2,6.1l-45.5,8C17.1,23.8,20.4,19.7,25.3,18.8z"/>
	</g>
</g>
<g>
	<path class="st3" d="M115.3,66.7c-0.3,1.9-0.8,3.3-1.4,4c-0.9,1.3-2.3,2.2-4.1,2.8s-3.8,0.8-6.2,0.8c-0.9,0-2.2,0-3.8-0.1
		c-1.5-0.1-2.7-0.1-3.5-0.1c-2.6-0.5-4.8-1.5-6.6-3.2c-1.5-1.4-2.5-3.2-3-5.3c-0.5-2.1-0.8-4.5-0.8-7.2v-2.2c0-2.8-0.1-4.8-0.2-6
		c0-1.9,0.1-3.7,0.4-5.2c0.1-0.9,0.4-2.1,0.9-3.3l0.4-0.9c0,0-0.1,0-0.1,0c0.7-1.4,2.1-2.5,4.3-3.2c2.2-0.7,4.7-1.1,7.4-1.1
		c0.2,0,1.1,0.1,2.6,0.1c0.3,0,0.9-0.1,1.8-0.1c0.6,0,1,0,1.2,0.1c3.7,0.3,6.5,1.3,8.4,3c1.2,0.9,2,2.3,2.4,4.1
		c0.4,1.8,0.6,4.2,0.7,7.3v0.8l0.1,1.1c-1.5,0.3-2.7,0.4-3.7,0.4c-1.1,0-3.1-0.2-5.8-0.5l-1.6-0.2c-0.2-1.4-0.7-2.5-1.4-3.3
		c-0.7-0.8-1.6-1.2-2.7-1.2c-0.3,0-0.7,0-1.1,0.1h0.1c-0.7,0.2-1.2,0.6-1.6,1c-0.4,0.4-0.6,0.9-0.8,1.7c-0.2,1.3-0.3,3-0.3,5.2
		l-0.1,2.4c0,0.5-0.1,1.2-0.1,1.9c0,1.1,0.4,1.9,1.1,2.4c0.7,0.5,1.6,0.8,2.7,0.8c0.9,0,1.8-0.2,2.6-0.7c0.2-0.3,0.5-0.8,0.7-1.6
		c0.3-0.8,0.5-1.6,0.6-2.4c1.4,0.2,2.9,0.2,4.4,0.1h1.6l1.6-0.1c1.2,0,2.1,0.1,2.7,0.2h0.9C115.9,62.2,115.6,64.8,115.3,66.7z"/>
	<path class="st3" d="M133.1,36.2c0.3,0,0.9-0.1,1.8-0.1c0.6,0,1,0,1.2,0.1c1.7,0.1,3.2,0.4,4.7,1c1.5,0.5,2.7,1.3,3.6,2.2
		c1.4,1.1,2.3,2.8,2.7,5.1c0.4,2.3,0.6,5,0.6,8.1v2.3c-0.1,4-0.4,7.4-0.7,10.1c-0.3,2.7-0.9,4.6-1.7,5.5c-0.9,1.3-2.3,2.2-4.1,2.8
		s-3.8,0.8-6.2,0.8c-0.9,0-2.2,0-3.8-0.1c-1.5-0.1-2.7-0.1-3.5-0.1c-2.5-0.5-4.7-1.5-6.6-3.2c-1.5-1.4-2.5-3.2-3-5.4
		c-0.6-2.1-0.9-4.6-0.9-7.3l-0.1-8.1c-0.1-1.3,0-3.1,0.5-5.5c0.4-2.4,0.9-3.8,1.4-4.1c0.5-1.3,1.9-2.3,4.1-3s4.7-1.1,7.4-1.1
		C130.7,36.2,131.6,36.2,133.1,36.2z M128.9,52.4c0,0.8-0.1,1.5-0.1,1.9l-0.1,1.4c0,1.2,0,2.5-0.1,3.9c0,1,0.4,1.9,1.2,2.6
		c0.8,0.7,1.6,1,2.6,1c0.9,0,1.9-0.2,2.8-0.6c0.3-0.1,0.6-0.9,1.1-2.3l0.1-0.4c0.3-2.4,0.4-4.1,0.4-5.2c0-1.1-0.1-2.2-0.3-3
		c-0.2-1.2-0.7-2.2-1.4-2.9c-0.7-0.7-1.5-1.1-2.6-1.1c-0.2,0-0.6,0-1.1,0.1c-1.2,0.4-1.9,0.9-2.1,1.6l-0.3,1.1
		C129,50.9,128.9,51.6,128.9,52.4z"/>
	<path class="st3" d="M164.8,36.2c0.3,0,0.9-0.1,1.8-0.1c0.6,0,1,0,1.2,0.1c1.7,0.1,3.2,0.4,4.7,1c1.5,0.5,2.7,1.3,3.6,2.2
		c1.4,1.1,2.3,2.8,2.7,5.1c0.4,2.3,0.6,5,0.6,8.1v2.3c-0.1,4-0.4,7.4-0.7,10.1c-0.3,2.7-0.9,4.6-1.7,5.5c-0.9,1.3-2.3,2.2-4.1,2.8
		s-3.8,0.8-6.2,0.8c-0.9,0-2.2,0-3.8-0.1c-1.5-0.1-2.7-0.1-3.5-0.1c-2.5-0.5-4.7-1.5-6.6-3.2c-1.5-1.4-2.5-3.2-3-5.4
		c-0.6-2.1-0.9-4.6-0.9-7.3l-0.1-8.1c-0.1-1.3,0-3.1,0.5-5.5c0.4-2.4,0.9-3.8,1.4-4.1c0.5-1.3,1.9-2.3,4.1-3s4.7-1.1,7.4-1.1
		C162.5,36.2,163.4,36.2,164.8,36.2z M160.6,52.4c0,0.8-0.1,1.5-0.1,1.9l-0.1,1.4c0,1.2,0,2.5-0.1,3.9c0,1,0.4,1.9,1.2,2.6
		c0.8,0.7,1.6,1,2.6,1c0.9,0,1.9-0.2,2.8-0.6c0.3-0.1,0.6-0.9,1.1-2.3l0.1-0.4c0.3-2.4,0.4-4.1,0.4-5.2c0-1.1-0.1-2.2-0.3-3
		c-0.2-1.2-0.7-2.2-1.4-2.9c-0.7-0.7-1.5-1.1-2.6-1.1c-0.2,0-0.6,0-1.1,0.1c-1.2,0.4-1.9,0.9-2.1,1.6l-0.3,1.1
		C160.7,50.9,160.7,51.6,160.6,52.4z"/>
	<path class="st3" d="M212.6,73.3l-4.3,0.1c-1.9,0.1-3.4,0.1-4.5,0.1c-2.1,0-3.7-0.1-4.7-0.4c-0.3-0.5-1-1.9-2.3-4.2l-0.9-1.8
		c-0.5-0.9-0.8-1.4-0.8-1.5l-1.7-3.3v1.9l0.1,2.3c0,2.8-0.2,5.1-0.5,6.7c-0.6,0-2.2-0.1-4.8-0.1c-1.4,0.1-2.6,0.1-3.5,0.1
		c-0.9,0-2-0.1-3.1-0.3c-0.2-4.9-0.3-10.5-0.3-16.7c0-3.6,0-9.1,0.1-16.2c0.1-7.3,0.1-13.7,0.1-19.1c1.9,0,3.3,0,4-0.1h1.8l1.8-0.1
		l2.4,0.1l1.7,0.1v17.4l-0.1,1.7c0,0.8-0.1,1.8-0.1,3.3l-0.1,0.9c0.5-0.6,0.9-1.1,1.1-1.6c0.2-0.5,0.4-0.9,0.6-1.1
		c0.1-0.1,0.2-0.3,0.3-0.6c0.1-0.3,0.2-0.5,0.4-0.7v0.1c1.2-2.1,2.4-3.8,3.5-5c1.4,0.5,2.7,0.7,4.1,0.7c0.8,0,1.9,0,3.5-0.1h0.4
		c0.5,0,1.3-0.1,2.6-0.1c1,0,1.8,0,2.3,0.1c-1.2,1.9-2.7,4-4.4,6.3s-2.8,3.7-3.2,4.2c0,0-0.4,0.4-0.9,1.1l-0.9,1.2l-2.6,3.3
		c0.2,0.4,0.5,0.8,0.7,1.2c0.3,0.4,0.5,0.7,0.7,1c0.5,0.9,1,1.6,1.5,2.3C207,62.9,210.2,68.5,212.6,73.3z"/>
	<path class="st3" d="M224.2,48l-0.1,4c-0.1,4.3-0.1,7.6-0.1,9.8c0,4.1,0.1,7.6,0.3,10.7c-0.2,0.3-0.7,0.6-1.5,0.7
		c-0.7,0.1-1.7,0.2-3,0.2c-1.5,0-2.5,0-3-0.1c-1.8-0.1-3.4,0-4.7,0.4c0.2-3.2,0.4-6.4,0.4-9.6c0-2,0-4.9-0.1-8.8
		c-0.1-3.2-0.1-6-0.1-8.4c0-3.5,0.1-6.9,0.4-10.1c0.7-0.1,1.2-0.1,1.7-0.1c0.4,0,0.8,0,1,0.1c2.9,0.1,5.2,0.2,6.9,0.1l2.2,0.4
		C224.4,39.7,224.3,43.3,224.2,48z M224.2,24.9c0,0.5,0,1.3,0.1,2.6l0.1,4.5c-0.2,0.3-0.6,0.4-1.1,0.4c-0.3,0-0.8,0-1.3-0.1
		s-1-0.1-1.4-0.1c-0.6,0-1.5,0-2.7-0.1c-0.5,0-1.3-0.1-2.4-0.1c-1.2,0-2.2,0-2.8,0.1c0-1,0-2.3-0.1-3.9l-0.1-1.1
		c-0.1-2.1-0.1-3.9-0.1-5.5l11.8,0.2C224.1,23,224.1,24,224.2,24.9z"/>
	<path class="st3" d="M238.7,40C238.6,40,238.6,40,238.7,40c1.2-0.8,2.5-1.4,4-1.8c1.5-0.4,3-0.7,4.4-0.7c3.1,0,5.5,0.8,7.2,2.3
		c1.3,1.2,2,5.1,2,11.7c0,1.9,0,4.9-0.1,8.9c-0.1,3.4-0.1,5.8-0.1,7.3c0,1.6,0,3.4,0.1,5.4c-2.6,0.4-5.2,0.5-7.7,0.4h-3.3
		c-0.1-1.4-0.1-4.2-0.1-8.2v-3.5c0-2.3,0-4-0.1-5l-0.1-0.4v-0.5c-0.1-1.3-0.2-2.4-0.3-3.1c-0.1-0.8-0.4-1.5-0.9-2.1
		c-0.5-0.7-1.3-1-2.3-1c-0.8,0-1.4,0.3-2.1,1c-0.6,0.7-0.9,1.7-1,3c0,0.7-0.1,1.8-0.1,3.3c0,1.2,0,2.9,0.1,5.2
		c0.1,2.4,0.1,4.1,0.1,5.3c0,2.1-0.1,4-0.3,5.7c-1.3,0.3-2.3,0.5-3.1,0.6c-0.8,0.1-1.6,0.1-2.6,0c-0.4,0-1.1-0.1-2.1-0.1
		c-1.1,0-2.2,0-3.2,0.1c0-5.7,0-9.9-0.1-12.6c-0.1-6.1-0.1-10.8-0.1-14c0-2.3,0-5.6,0.1-9.9c1.5,0.2,2.7,0.3,3.5,0.3
		c0.8,0,1.6,0,2.3-0.1l1.2-0.1c1-0.1,1.8-0.1,2.4-0.1c1.1,0,1.7,0.2,1.8,0.5C238.6,38.1,238.6,38.9,238.7,40L238.7,40
		C238.7,40,238.7,40,238.7,40z"/>
	<path class="st3" d="M289.7,38.5c0.1,0.6,0.1,1.1,0.1,1.6c0,1.2-0.1,3.1-0.1,5.5c0,3.3,0,5.8,0.1,7.4v4.3l0.1,4.3
		c0,2.8-0.1,5.6-0.2,8.6v0.7c0,0.8-0.1,1.3-0.3,1.7c-0.2,0.4-0.7,0.7-1.5,0.8h-9c-1.1-0.3-1.6-1-1.6-1.9v-0.5
		c-1.2,0.8-2.5,1.4-3.9,1.8c-1.4,0.4-2.8,0.7-4.1,0.7c-2.5,0-4.6-1-6.3-3c-1.7-2-3-4.5-3.9-7.6c-0.9-3-1.3-5.9-1.3-8.8
		c0-3.1,0.6-5.9,1.7-8.5c1.1-2.5,2.7-4.5,4.7-6c2-1.5,4.2-2.2,6.6-2.3c1.5,0,2.8,0.1,4.1,0.4c1.3,0.2,2.1,0.5,2.4,0.9
		c0-0.2,0-0.5-0.1-0.9c-0.1-0.4-0.1-0.7,0.1-0.9c0.1-0.1,0.4-0.1,1-0.1c0.9,0,2,0.1,3.4,0.2c1.4,0.1,2.3,0.2,2.7,0.2l4.5,0.2h0.9
		C289.6,37.5,289.6,37.9,289.7,38.5z M270,60.7c0.9,1.4,2.2,2.1,3.8,2.1c1,0,1.8-0.3,2.3-0.9c0.5-0.6,0.8-1.3,0.9-2.3
		c0.1-0.9,0.2-2.4,0.2-4.3v-1.8c0-2,0-3.4-0.1-4.1c-0.1-0.7-0.3-1.2-0.6-1.5c-0.4-0.3-1-0.4-1.9-0.4c-1.5,0-2.7,0.4-3.7,1.2
		c-0.9,0.8-1.6,1.8-1.8,3c-0.3,0.9-0.4,2.2-0.4,3.7C268.6,57.6,269.1,59.3,270,60.7z"/>
	<path class="st3" d="M307.6,37.6c2.5-0.1,4.6-0.2,6.5-0.4l1-0.1c0.3,0,0.7-0.1,1,0c0.4,0,0.6,0,0.9,0h1.6c0.2,1.9,0.3,3,0.3,3.3
		c0,0.2,0,1-0.1,2.2l-0.1,0.8l-0.1,1.6c0,0.3,0,0.9,0.1,1.6h-11.1c0,7.5,0,12.1-0.1,13.8c0.7,0.9,2,1.6,3.8,2
		c1.8,0.4,3.8,0.6,5.7,0.6l1.5-0.1v0.6l0.1,0.3v-0.1c0.3,2,0.4,3.8,0.4,5.3c0,1.5-0.2,2.9-0.6,4.1c-1.2,0.1-2.5,0.1-3.8,0.1
		c-4.3,0-8.1-0.5-11.3-1.5c-3.2-1-5.4-2.8-6.4-5.2c-0.4-2.6-0.7-5.1-0.9-7.6c-0.1-2.5-0.2-5.4-0.2-8.7v-3.5c-0.6,0-1.2,0.1-1.7,0
		c-0.5,0-0.9,0-1.3,0h-2.1l0.2-9.4c1.3,0,3,0.1,5,0.1l0.1-13.5c1-0.1,1.9-0.1,2.7-0.1c0.8,0,1.7,0,2.7,0.1l0.5,0.1
		c1.1,0.1,2,0.1,2.6,0.1c0.9,0,1.8-0.1,2.8-0.2v12.9L307.6,37.6z"/>
	<path class="st3" d="M332,48l-0.1,4c-0.1,4.3-0.1,7.6-0.1,9.8c0,4.1,0.1,7.6,0.3,10.7c-0.2,0.3-0.7,0.6-1.5,0.7
		c-0.7,0.1-1.7,0.2-3,0.2c-1.5,0-2.5,0-3-0.1c-1.8-0.1-3.4,0-4.7,0.4c0.2-3.2,0.4-6.4,0.4-9.6c0-2,0-4.9-0.1-8.8
		c-0.1-3.2-0.1-6-0.1-8.4c0-3.5,0.1-6.9,0.4-10.1c0.7-0.1,1.2-0.1,1.7-0.1c0.4,0,0.8,0,1,0.1c2.9,0.1,5.2,0.2,6.9,0.1l2.2,0.4
		C332.1,39.7,332.1,43.3,332,48z M331.9,24.9c0,0.5,0,1.3,0.1,2.6l0.1,4.5c-0.2,0.3-0.6,0.4-1.1,0.4c-0.3,0-0.8,0-1.3-0.1
		s-1-0.1-1.4-0.1c-0.6,0-1.5,0-2.7-0.1c-0.5,0-1.3-0.1-2.4-0.1c-1.2,0-2.2,0-2.8,0.1c0-1,0-2.3-0.1-3.9l-0.1-1.1
		c-0.1-2.1-0.1-3.9-0.1-5.5l11.8,0.2C331.8,23,331.9,24,331.9,24.9z"/>
	<path class="st3" d="M349.9,36.2c0.3,0,0.9-0.1,1.8-0.1c0.6,0,1,0,1.2,0.1c1.7,0.1,3.2,0.4,4.7,1c1.5,0.5,2.7,1.3,3.6,2.2
		c1.4,1.1,2.3,2.8,2.7,5.1c0.4,2.3,0.6,5,0.6,8.1v2.3c-0.1,4-0.4,7.4-0.7,10.1c-0.3,2.7-0.9,4.6-1.7,5.5c-0.9,1.3-2.3,2.2-4.1,2.8
		s-3.8,0.8-6.2,0.8c-0.9,0-2.2,0-3.8-0.1c-1.5-0.1-2.7-0.1-3.5-0.1c-2.5-0.5-4.7-1.5-6.6-3.2c-1.5-1.4-2.5-3.2-3-5.4
		c-0.6-2.1-0.9-4.6-0.9-7.3l-0.1-8.1c-0.1-1.3,0-3.1,0.5-5.5c0.4-2.4,0.9-3.8,1.4-4.1c0.5-1.3,1.9-2.3,4.1-3
		c2.2-0.7,4.7-1.1,7.4-1.1C347.5,36.2,348.4,36.2,349.9,36.2z M345.7,52.4c0,0.8-0.1,1.5-0.1,1.9l-0.1,1.4c0,1.2,0,2.5-0.1,3.9
		c0,1,0.4,1.9,1.2,2.6c0.8,0.7,1.6,1,2.6,1c0.9,0,1.9-0.2,2.8-0.6c0.3-0.1,0.6-0.9,1.1-2.3l0.1-0.4c0.3-2.4,0.4-4.1,0.4-5.2
		c0-1.1-0.1-2.2-0.3-3c-0.2-1.2-0.7-2.2-1.4-2.9c-0.7-0.7-1.5-1.1-2.6-1.1c-0.2,0-0.6,0-1.1,0.1c-1.2,0.4-1.9,0.9-2.1,1.6l-0.3,1.1
		C345.8,50.9,345.7,51.6,345.7,52.4z"/>
	<path class="st3" d="M378.2,40C378.2,40,378.2,40,378.2,40c1.2-0.8,2.5-1.4,4-1.8c1.5-0.4,3-0.7,4.4-0.7c3.1,0,5.5,0.8,7.2,2.3
		c1.3,1.2,2,5.1,2,11.7c0,1.9,0,4.9-0.1,8.9c-0.1,3.4-0.1,5.8-0.1,7.3c0,1.6,0,3.4,0.1,5.4c-2.6,0.4-5.2,0.5-7.7,0.4h-3.3
		c-0.1-1.4-0.1-4.2-0.1-8.2v-3.5c0-2.3,0-4-0.1-5l-0.1-0.4v-0.5c-0.1-1.3-0.2-2.4-0.3-3.1c-0.1-0.8-0.4-1.5-0.9-2.1
		c-0.5-0.7-1.3-1-2.3-1c-0.8,0-1.4,0.3-2.1,1c-0.6,0.7-0.9,1.7-1,3c0,0.7-0.1,1.8-0.1,3.3c0,1.2,0,2.9,0.1,5.2
		c0.1,2.4,0.1,4.1,0.1,5.3c0,2.1-0.1,4-0.3,5.7c-1.3,0.3-2.3,0.5-3.1,0.6c-0.8,0.1-1.6,0.1-2.6,0c-0.4,0-1.1-0.1-2.1-0.1
		c-1.1,0-2.2,0-3.2,0.1c0-5.7,0-9.9-0.1-12.6c-0.1-6.1-0.1-10.8-0.1-14c0-2.3,0-5.6,0.1-9.9c1.5,0.2,2.7,0.3,3.5,0.3
		c0.8,0,1.6,0,2.3-0.1l1.2-0.1c1-0.1,1.8-0.1,2.4-0.1c1.1,0,1.7,0.2,1.8,0.5C378.1,38.1,378.1,38.9,378.2,40L378.2,40
		C378.2,40,378.2,40,378.2,40z"/>
</g>
</svg>
